<svg xmlns="http://www.w3.org/2000/svg" width="62.418" height="13.062" viewBox="0 0 62.418 13.062">
  <g id="Group_43" data-name="Group 43" transform="translate(-328 -926.939)">
    <g id="Layer_1-2" data-name="Layer 1-2" transform="translate(328 926.939)">
      <path id="Path_1" data-name="Path 1" d="M84.28-131.954a2.281,2.281,0,0,0-1.37,2l-.021,1.1q0,3.224,3.725,3.224h9.107v.011h2.131V-138.51H86.622q-3.725,0-3.725,3.225l.021,1.1Q83.088-132.34,84.28-131.954Zm.754,2.57q.011-1.6,1.417-1.6l1.362-.023h7.909v3.246H86.453q-1.405,0-1.417-1.622Zm0-5.375q.011-1.622,1.417-1.622h9.271v3.223H86.453q-1.405,0-1.417-1.6Z" transform="translate(-35.434 138.531)" fill="#1d2633"/>
      <path id="Path_2" data-name="Path 2" d="M4.882-134.865-.44-124.244H1.9l1.827-3.61h6.462l1.884,3.61h2.389L9.14-134.865a8.148,8.148,0,0,0-.895-1.481A1.9,1.9,0,0,0,7.011-137a1.884,1.884,0,0,0-1.236.641A7.846,7.846,0,0,0,4.882-134.865Zm-.064,4.881,1.656-3.272c.188-.362.339-.9.465-.9s.281.535.465.9l1.7,3.269Z" transform="translate(32.196 137.305)" fill="#1d2633"/>
      <path id="Path_3" data-name="Path 3" d="M-66.117-132.15q0,6.449-7.442,6.438L-81-125.724v-2.148h7.451q5.32,0,5.322-4.3t-5.328-4.288l-5.311-.011-.011,1.1H-81v-3.246h7.5Q-66.117-138.6-66.117-132.15Z" transform="translate(97.579 138.62)" fill="#1d2633"/>
      <path id="Path_4" data-name="Path 4" d="M-165.273-133.139h6.812l-10.39-5.371h4.471l8.175,4.241-.021-4.241h2.129v12.875h-2.129l.021-5.351h-9.232q-1.405,0-1.415,1.6l.009,3.749H-169v-3.224l.021-1.1Q-168.979-133.139-165.273-133.139Z" transform="translate(169 138.531)" fill="#1d2633"/>
    </g>
  </g>
</svg>
